<svg width="14" height="21" viewBox="0 0 14 21" fill="none" xmlns="http://www.w3.org/2000/svg">
<g id="Medal 5">
<g id="Group">
<path id="Vector" d="M11.7338 11.5467C11.719 11.4914 11.6902 11.4409 11.6502 11.3999C11.6102 11.359 11.5603 11.3291 11.5054 11.313C11.4505 11.2969 11.3924 11.2952 11.3366 11.3081C11.2809 11.3211 11.2294 11.3481 11.1871 11.3867C10.1147 12.4033 8.73181 13.0301 7.26044 13.1667C7.21156 13.1715 7.16436 13.1871 7.12221 13.2123C7.08006 13.2375 7.044 13.2717 7.01661 13.3125C6.98922 13.3532 6.97118 13.3996 6.96377 13.4481C6.95637 13.4967 6.95978 13.5462 6.97377 13.5933C7.49639 15.7615 7.83977 17.9689 8.00044 20.1933C8.00548 20.2637 8.03272 20.3307 8.07824 20.3846C8.12377 20.4385 8.18523 20.4766 8.25377 20.4933H8.33377C8.38955 20.4932 8.4444 20.4791 8.49332 20.4524C8.54224 20.4256 8.58365 20.3869 8.61377 20.34L10.1204 17.9267C11.0882 18.4006 11.9856 19.0064 12.7871 19.7267C12.8338 19.766 12.8905 19.7917 12.9508 19.801C13.0112 19.8103 13.0729 19.8029 13.1293 19.7795C13.1857 19.7561 13.2346 19.7176 13.2707 19.6684C13.3067 19.6191 13.3286 19.5608 13.3338 19.5C13.3338 17.68 12.3338 13.7333 11.7338 11.5467Z" fill="#17AC8C"/>
<path id="Vector_2" d="M6.07333 13.1668C4.60844 13.038 3.22865 12.4232 2.15333 11.4201C2.11106 11.3815 2.05957 11.3545 2.00382 11.3416C1.94807 11.3287 1.88994 11.3304 1.83502 11.3464C1.7801 11.3625 1.73024 11.3924 1.69025 11.4334C1.65025 11.4743 1.62147 11.5248 1.60667 11.5801C1 13.7334 0 17.6801 0 19.5001C0.000916489 19.5654 0.0209607 19.6289 0.0576474 19.6828C0.0943341 19.7368 0.14605 19.7788 0.206384 19.8037C0.266718 19.8285 0.333016 19.8351 0.39706 19.8226C0.461103 19.8101 0.520076 19.7791 0.566667 19.7334C1.36816 19.0132 2.26558 18.4074 3.23333 17.9334L4.74 20.3468C4.77012 20.3937 4.81153 20.4324 4.86045 20.4591C4.90937 20.4859 4.96423 20.5 5.02 20.5001H5.1C5.16854 20.4834 5.23 20.4453 5.27553 20.3914C5.32105 20.3375 5.34829 20.2705 5.35333 20.2001C5.51254 17.9667 5.85593 15.7503 6.38 13.5734C6.39399 13.5264 6.3974 13.4768 6.39 13.4282C6.38259 13.3797 6.36455 13.3334 6.33716 13.2926C6.30977 13.2518 6.27371 13.2176 6.23156 13.1924C6.18941 13.1672 6.14221 13.1516 6.09333 13.1468L6.07333 13.1668Z" fill="#17AC8C"/>
<path id="Vector_3" d="M12.667 6.5C12.667 5.31331 12.3151 4.15328 11.6558 3.16658C10.9965 2.17989 10.0595 1.41085 8.96309 0.956725C7.86674 0.5026 6.66034 0.38378 5.49645 0.615291C4.33257 0.846802 3.26347 1.41825 2.42435 2.25736C1.58524 3.09648 1.01379 4.16557 0.782283 5.32946C0.550772 6.49335 0.669592 7.69975 1.12372 8.7961C1.57784 9.89246 2.34688 10.8295 3.33357 11.4888C4.32027 12.1481 5.48031 12.5 6.66699 12.5C8.25829 12.5 9.78442 11.8679 10.9096 10.7426C12.0349 9.61742 12.667 8.0913 12.667 6.5ZM10.5537 5.75333L8.55366 7.53333L9.33366 10.0667C9.3545 10.1322 9.35453 10.2026 9.33377 10.2682C9.313 10.3338 9.27245 10.3914 9.21767 10.433C9.1629 10.4746 9.09659 10.4983 9.02783 10.5007C8.95908 10.5032 8.89125 10.4843 8.83366 10.4467L6.66699 9.05333L4.79366 10.4333C4.73903 10.4724 4.67388 10.494 4.60674 10.4954C4.5396 10.4968 4.4736 10.4779 4.41739 10.4412C4.36119 10.4044 4.31739 10.3515 4.29174 10.2895C4.2661 10.2274 4.25979 10.159 4.27366 10.0933L4.82699 7.54667L2.78033 5.75333C2.73025 5.71123 2.69367 5.65531 2.67515 5.59256C2.65663 5.5298 2.65699 5.46299 2.67618 5.40043C2.69538 5.33788 2.73255 5.28236 2.78308 5.24079C2.83361 5.19923 2.89525 5.17345 2.96033 5.16667L5.56033 4.87334L6.34699 2.71334C6.37035 2.64899 6.41295 2.59339 6.46901 2.5541C6.52507 2.51481 6.59187 2.49373 6.66033 2.49373C6.72878 2.49373 6.79558 2.51481 6.85164 2.5541C6.9077 2.59339 6.9503 2.64899 6.97366 2.71334L7.76033 4.87334L10.3603 5.16667C10.4239 5.17462 10.4839 5.20072 10.533 5.24186C10.5821 5.283 10.6184 5.33743 10.6373 5.39863C10.6563 5.45983 10.6573 5.52521 10.6401 5.58693C10.6229 5.64866 10.5882 5.70412 10.5403 5.74667L10.5537 5.75333Z" fill="#FFCC3A"/>
</g>
</g>
</svg>
