<svg width="12" height="12" viewBox="0 0 12 12" fill="none" xmlns="http://www.w3.org/2000/svg">
<g id="rating">
<path id="rating_2" d="M5.71562 1.19964C5.73871 1.1406 5.77805 1.09008 5.82862 1.05453C5.87919 1.01898 5.9387 1 5.99959 1C6.06049 1 6.12 1.01898 6.17057 1.05453C6.22114 1.09008 6.26047 1.1406 6.28357 1.19964L7.44405 4.12481C7.46578 4.17955 7.50149 4.22694 7.54725 4.26178C7.59302 4.29661 7.64707 4.31754 7.70345 4.32226L10.7169 4.57523C10.9894 4.59813 11.0997 4.95469 10.8922 5.14069L8.59634 7.20222C8.55345 7.24068 8.52149 7.29076 8.50395 7.34699C8.48642 7.40323 8.484 7.46343 8.49695 7.52101L9.1987 10.603C9.21281 10.6648 9.20911 10.7297 9.18808 10.7893C9.16705 10.8489 9.12963 10.9007 9.08054 10.938C9.03146 10.9754 8.97291 10.9967 8.91229 10.9992C8.85168 11.0017 8.79171 10.9853 8.73997 10.9521L6.1596 9.30095C6.1114 9.27016 6.05604 9.25387 5.99959 9.25387C5.94315 9.25387 5.88779 9.27016 5.83958 9.30095L3.25922 10.9527C3.20748 10.9859 3.14751 11.0023 3.0869 10.9998C3.02628 10.9972 2.96773 10.976 2.91865 10.9386C2.86956 10.9013 2.83214 10.8495 2.81111 10.7899C2.79008 10.7302 2.78638 10.6654 2.80049 10.6036L3.50224 7.52101C3.51525 7.46343 3.51286 7.40321 3.49532 7.34696C3.47779 7.29072 3.44579 7.24064 3.40285 7.20222L1.107 5.14069C1.06103 5.09926 1.02777 5.04451 1.01141 4.98332C0.995044 4.92214 0.99631 4.85724 1.01505 4.79681C1.03378 4.73637 1.06915 4.68309 1.1167 4.64367C1.16426 4.60424 1.22187 4.58043 1.2823 4.57523L4.29573 4.32226C4.35212 4.31754 4.40617 4.29661 4.45194 4.26178C4.4977 4.22694 4.53341 4.17955 4.55514 4.12481L5.71562 1.20021V1.19964Z" fill="#F08200" stroke="#F08200" stroke-linecap="round" stroke-linejoin="round"/>
</g>
</svg>
