<svg width="16" height="16" viewBox="0 0 16 16" fill="none" xmlns="http://www.w3.org/2000/svg">
<g id="share">
<path id="Vector" d="M4.81112 7.27128C4.6497 6.98082 4.39639 6.75219 4.09097 6.62127C3.78555 6.49035 3.4453 6.46455 3.12363 6.54793C2.80196 6.63131 2.51708 6.81914 2.31371 7.08195C2.11034 7.34475 2 7.66764 2 7.99994C2 8.33224 2.11034 8.65514 2.31371 8.91794C2.51708 9.18074 2.80196 9.36858 3.12363 9.45196C3.4453 9.53534 3.78555 9.50954 4.09097 9.37862C4.39639 9.2477 4.6497 9.01907 4.81112 8.72861M4.81112 7.27128C4.93112 7.48728 4.99979 7.73528 4.99979 7.99994C4.99979 8.26461 4.93112 8.51328 4.81112 8.72861M4.81112 7.27128L11.1885 3.72861M4.81112 8.72861L11.1885 12.2713M11.1885 12.2713C11.0928 12.4435 11.0319 12.6329 11.0095 12.8287C10.987 13.0245 11.0033 13.2227 11.0574 13.4122C11.1115 13.6016 11.2025 13.7786 11.325 13.9329C11.4475 14.0872 11.5992 14.2159 11.7715 14.3116C11.9437 14.4073 12.1331 14.4681 12.3289 14.4906C12.5246 14.5131 12.7229 14.4968 12.9124 14.4427C13.1018 14.3885 13.2788 14.2976 13.4331 14.1751C13.5874 14.0526 13.7161 13.9009 13.8118 13.7286C14.005 13.3807 14.0522 12.9703 13.9429 12.5877C13.8335 12.2051 13.5767 11.8815 13.2288 11.6883C12.8809 11.495 12.4705 11.4479 12.0879 11.5572C11.7052 11.6665 11.3817 11.9234 11.1885 12.2713V12.2713ZM11.1885 3.72861C11.282 3.9047 11.4096 4.06039 11.564 4.18656C11.7184 4.31274 11.8964 4.40687 12.0875 4.46346C12.2787 4.52005 12.4793 4.53796 12.6774 4.51614C12.8756 4.49432 13.0675 4.43321 13.2417 4.33639C13.416 4.23956 13.5693 4.10896 13.6925 3.95222C13.8157 3.79548 13.9065 3.61575 13.9594 3.42353C14.0124 3.23132 14.0265 3.03047 14.0009 2.83274C13.9753 2.63501 13.9106 2.44436 13.8105 2.27194C13.6132 1.93217 13.2904 1.68337 12.9117 1.57902C12.5329 1.47467 12.1283 1.52311 11.7848 1.71391C11.4414 1.90472 11.1865 2.22267 11.075 2.59941C10.9634 2.97615 11.0042 3.3816 11.1885 3.72861V3.72861Z" stroke="#717171" stroke-width="1.5" stroke-linecap="round" stroke-linejoin="round"/>
</g>
</svg>
