<svg width="14" height="14" viewBox="0 0 14 14" fill="none" xmlns="http://www.w3.org/2000/svg">
<g id="Frame">
<path id="Vector" d="M9.18789 3.5C9.18789 4.08016 8.95742 4.63656 8.54719 5.0468C8.13695 5.45703 7.58055 5.6875 7.00039 5.6875C6.42023 5.6875 5.86383 5.45703 5.4536 5.0468C5.04336 4.63656 4.81289 4.08016 4.81289 3.5C4.81289 2.91984 5.04336 2.36344 5.4536 1.9532C5.86383 1.54297 6.42023 1.3125 7.00039 1.3125C7.58055 1.3125 8.13695 1.54297 8.54719 1.9532C8.95742 2.36344 9.18789 2.91984 9.18789 3.5V3.5ZM2.62598 11.7355C2.64472 10.5877 3.11384 9.49326 3.93216 8.68819C4.75049 7.88313 5.85244 7.43194 7.00039 7.43194C8.14834 7.43194 9.2503 7.88313 10.0686 8.68819C10.8869 9.49326 11.3561 10.5877 11.3748 11.7355C10.0025 12.3648 8.51015 12.6895 7.00039 12.6875C5.43939 12.6875 3.95773 12.3468 2.62598 11.7355Z" stroke="#717171" stroke-linecap="round" stroke-linejoin="round"/>
</g>
</svg>
