<svg width="14" height="15" viewBox="0 0 14 15" fill="none" xmlns="http://www.w3.org/2000/svg">
<g id="date">
<path id="Vector" d="M3.9375 2.5625V3.875M10.0625 2.5625V3.875M1.75 11.75V5.1875C1.75 4.8394 1.88828 4.50556 2.13442 4.25942C2.38056 4.01328 2.7144 3.875 3.0625 3.875H10.9375C11.2856 3.875 11.6194 4.01328 11.8656 4.25942C12.1117 4.50556 12.25 4.8394 12.25 5.1875V11.75M1.75 11.75C1.75 12.0981 1.88828 12.4319 2.13442 12.6781C2.38056 12.9242 2.7144 13.0625 3.0625 13.0625H10.9375C11.2856 13.0625 11.6194 12.9242 11.8656 12.6781C12.1117 12.4319 12.25 12.0981 12.25 11.75M1.75 11.75V7.375C1.75 7.0269 1.88828 6.69306 2.13442 6.44692C2.38056 6.20078 2.7144 6.0625 3.0625 6.0625H10.9375C11.2856 6.0625 11.6194 6.20078 11.8656 6.44692C12.1117 6.69306 12.25 7.0269 12.25 7.375V11.75" stroke="#717171" stroke-width="1.2" stroke-linecap="round" stroke-linejoin="round"/>
</g>
</svg>
