<svg width="11" height="17" viewBox="0 0 11 17" fill="none" xmlns="http://www.w3.org/2000/svg">
<g id="Group">
<path id="Vector" d="M9.65889 9.41155C9.64705 9.36733 9.62402 9.3269 9.59203 9.29416C9.56003 9.26142 9.52015 9.23746 9.47621 9.2246C9.43227 9.21174 9.38577 9.21041 9.34117 9.22074C9.29657 9.23106 9.25538 9.25269 9.22156 9.28355C8.36361 10.0968 7.25733 10.5983 6.08023 10.7075C6.04113 10.7114 6.00337 10.7239 5.96965 10.7441C5.93592 10.7642 5.90708 10.7916 5.88516 10.8242C5.86325 10.8568 5.84882 10.8939 5.84289 10.9327C5.83697 10.9715 5.8397 11.0112 5.85089 11.0489C6.26899 12.7834 6.54369 14.5493 6.67223 16.3289C6.67626 16.3852 6.69805 16.4388 6.73447 16.4819C6.77089 16.525 6.82006 16.5555 6.87489 16.5689H6.93889C6.98351 16.5688 7.0274 16.5575 7.06653 16.5361C7.10567 16.5147 7.1388 16.4838 7.16289 16.4462L8.36823 14.5155C9.14243 14.8947 9.86036 15.3793 10.5016 15.9555C10.5389 15.987 10.5843 16.0076 10.6325 16.015C10.6808 16.0225 10.7302 16.0165 10.7753 15.9978C10.8205 15.9791 10.8596 15.9483 10.8884 15.9089C10.9173 15.8695 10.9347 15.8229 10.9389 15.7742C10.9389 14.3182 10.1389 11.1609 9.65889 9.41155Z" fill="#17AC8C"/>
<path id="Vector_2" d="M5.13015 10.7075C3.95824 10.6045 2.85441 10.1126 1.99415 9.31016C1.96033 9.2793 1.91914 9.25767 1.87454 9.24735C1.82994 9.23702 1.78344 9.23836 1.7395 9.25122C1.69556 9.26407 1.65568 9.28803 1.62368 9.32077C1.59169 9.35351 1.56866 9.39394 1.55682 9.43816C1.07148 11.1608 0.271484 14.3182 0.271484 15.7742C0.272218 15.8264 0.288253 15.8772 0.317602 15.9204C0.346952 15.9635 0.388324 15.9971 0.436591 16.017C0.484858 16.0369 0.537897 16.0421 0.589132 16.0322C0.640367 16.0222 0.687545 15.9974 0.724818 15.9608C1.36601 15.3846 2.08395 14.9 2.85815 14.5208L4.06348 16.4515C4.08758 16.489 4.12071 16.52 4.15984 16.5414C4.19898 16.5628 4.24287 16.5741 4.28748 16.5742H4.35148C4.40632 16.5608 4.45549 16.5303 4.49191 16.4872C4.52833 16.444 4.55012 16.3905 4.55415 16.3342C4.68152 14.5475 4.95623 12.7743 5.37548 11.0328C5.38668 10.9952 5.38941 10.9555 5.38348 10.9167C5.37756 10.8778 5.36313 10.8408 5.34121 10.8081C5.3193 10.7755 5.29045 10.7482 5.25673 10.728C5.22301 10.7078 5.18525 10.6954 5.14615 10.6915L5.13015 10.7075Z" fill="#17AC8C"/>
<path id="Vector_3" d="M10.4047 5.37422C10.4047 4.42487 10.1232 3.49684 9.59574 2.70748C9.06831 1.91813 8.31866 1.3029 7.44157 0.939599C6.56448 0.576299 5.59936 0.481243 4.66826 0.666452C3.73715 0.851661 2.88187 1.30882 2.21058 1.98011C1.53928 2.6514 1.08213 3.50668 0.89692 4.43779C0.711711 5.3689 0.806767 6.33401 1.17007 7.2111C1.53337 8.08819 2.1486 8.83784 2.93795 9.36527C3.72731 9.8927 4.65534 10.1742 5.60469 10.1742C6.87773 10.1742 8.09863 9.66851 8.9988 8.76833C9.89898 7.86816 10.4047 6.64726 10.4047 5.37422ZM8.71402 4.77689L7.11402 6.20089L7.73802 8.22755C7.75469 8.28001 7.75472 8.33633 7.73811 8.3888C7.72149 8.44127 7.68905 8.48732 7.64523 8.52062C7.60141 8.55392 7.54837 8.57285 7.49336 8.57481C7.43836 8.57677 7.3841 8.56166 7.33802 8.53155L5.60469 7.41689L4.10602 8.52089C4.06232 8.55213 4.0102 8.56944 3.95648 8.57056C3.90277 8.57168 3.84997 8.55654 3.80501 8.52714C3.76004 8.49774 3.72501 8.45545 3.70449 8.40579C3.68397 8.35614 3.67893 8.30145 3.69002 8.24889L4.13269 6.21155L2.49536 4.77689C2.45529 4.7432 2.42603 4.69847 2.41122 4.64826C2.3964 4.59806 2.39669 4.54461 2.41204 4.49457C2.42739 4.44453 2.45713 4.40011 2.49756 4.36685C2.53798 4.3336 2.58729 4.31298 2.63936 4.30755L4.71936 4.07289L5.34869 2.34489C5.36737 2.29341 5.40146 2.24893 5.4463 2.2175C5.49115 2.18606 5.54459 2.1692 5.59936 2.1692C5.65412 2.1692 5.70756 2.18606 5.75241 2.2175C5.79726 2.24893 5.83134 2.29341 5.85002 2.34489L6.47936 4.07289L8.55936 4.30755C8.61022 4.31391 8.65818 4.3348 8.69749 4.36771C8.73679 4.40062 8.76577 4.44416 8.78097 4.49312C8.79616 4.54208 8.79692 4.59438 8.78316 4.64377C8.76939 4.69315 8.74169 4.73751 8.70336 4.77155L8.71402 4.77689Z" fill="#FFCC3A"/>
</g>
</svg>
