<svg width="14" height="15" viewBox="0 0 14 15" fill="none" xmlns="http://www.w3.org/2000/svg">
<g id="phone">
<path id="Vector" d="M1.3125 4.25C1.3125 9.08233 5.23017 13 10.0625 13H11.375C11.7231 13 12.0569 12.8617 12.3031 12.6156C12.5492 12.3694 12.6875 12.0356 12.6875 11.6875V10.8872C12.6875 10.5862 12.4828 10.3237 12.1905 10.2508L9.61042 9.60558C9.35375 9.54142 9.08425 9.63767 8.92617 9.84883L8.36033 10.6031C8.19583 10.8224 7.91175 10.9192 7.6545 10.8247C6.69951 10.4737 5.83226 9.91918 5.11279 9.19971C4.39332 8.48024 3.83884 7.61299 3.48775 6.658C3.39325 6.40075 3.49008 6.11667 3.70942 5.95217L4.46367 5.38633C4.67542 5.22825 4.77108 4.95817 4.70692 4.70208L4.06175 2.122C4.02625 1.98007 3.94434 1.85408 3.82903 1.76403C3.71372 1.67398 3.57163 1.62505 3.42533 1.625H2.625C2.2769 1.625 1.94306 1.76328 1.69692 2.00942C1.45078 2.25556 1.3125 2.5894 1.3125 2.9375V4.25Z" stroke="#717171" stroke-width="1.2" stroke-linecap="round" stroke-linejoin="round"/>
</g>
</svg>
