<svg width="154" height="37" viewBox="0 0 154 37" fill="none" xmlns="http://www.w3.org/2000/svg">
<g id="Group 18">
<g id="icon">
<path id="&#60;Path&#62;" d="M24.6289 19.6447C24.6467 18.2649 25.0132 16.9119 25.6944 15.7118C26.3755 14.5116 27.3492 13.5033 28.5248 12.7806C27.778 11.714 26.7927 10.8362 25.6474 10.217C24.502 9.59781 23.228 9.2542 21.9266 9.21349C19.1505 8.92209 16.4592 10.8747 15.0445 10.8747C13.6025 10.8747 11.4244 9.24242 9.07893 9.29067C7.56183 9.33969 6.0833 9.78085 4.78739 10.5712C3.49149 11.3615 2.4224 12.474 1.6843 13.8004C-1.51299 19.336 0.871902 27.4715 3.93463 31.946C5.46698 34.1371 7.25786 36.5846 9.60119 36.4978C11.8943 36.4027 12.7507 35.0356 15.5186 35.0356C18.2609 35.0356 19.0644 36.4978 21.4553 36.4426C23.9159 36.4027 25.4662 34.2418 26.9447 32.03C28.0457 30.4688 28.893 28.7433 29.455 26.9174C28.0255 26.3128 26.8055 25.3008 25.9473 24.0075C25.0891 22.7142 24.6306 21.1969 24.6289 19.6447Z" fill="white"/>
<path id="&#60;Path&#62;_2" d="M20.1133 6.27069C21.4549 4.66013 22.1159 2.59003 21.9558 0.5C19.9061 0.71528 18.0128 1.6949 16.6531 3.24366C15.9882 4.00028 15.4791 4.8805 15.1546 5.83401C14.8302 6.78753 14.6969 7.79564 14.7623 8.80071C15.7875 8.81127 16.8017 8.58906 17.7286 8.15081C18.6555 7.71257 19.4709 7.06972 20.1133 6.27069Z" fill="white"/>
</g>
<g id="text">
<g id="App Store">
<path id="Vector" d="M54.5354 27.3734H47.5748L45.9033 32.1963H42.9551L49.548 14.353H52.611L59.2039 32.1963H56.2055L54.5354 27.3734ZM48.2957 25.1479H53.8131L51.0932 17.3208H51.0171L48.2957 25.1479Z" fill="white"/>
<path id="Vector_2" d="M73.4424 25.6924C73.4424 29.735 71.228 32.3324 67.8863 32.3324C67.0398 32.3756 66.198 32.1851 65.4571 31.7826C64.7163 31.38 64.1064 30.7818 63.6974 30.0563H63.6342V36.4999H60.9014V19.1871H63.5466V21.3508H63.5969C64.0247 20.6289 64.6449 20.0337 65.3914 19.6287C66.1378 19.2238 66.9827 19.0241 67.8361 19.051C71.215 19.051 73.4424 21.661 73.4424 25.6924ZM70.6335 25.6924C70.6335 23.0586 69.2405 21.327 67.1152 21.327C65.0272 21.327 63.6227 23.095 63.6227 25.6924C63.6227 28.3136 65.0272 30.069 67.1152 30.069C69.2405 30.069 70.6335 28.3501 70.6335 25.6924Z" fill="white"/>
<path id="Vector_3" d="M88.0957 25.693C88.0957 29.7356 85.8813 32.3329 82.5397 32.3329C81.6932 32.3762 80.8513 32.1857 80.1105 31.7832C79.3696 31.3806 78.7598 30.7824 78.3507 30.0569H78.2875V36.5005H75.5547V19.1877H78.1999V21.3514H78.2501C78.678 20.6295 79.2981 20.0343 80.0446 19.6293C80.7911 19.2244 81.636 19.0247 82.4894 19.0516C85.8684 19.0516 88.0957 21.6616 88.0957 25.693ZM85.2868 25.693C85.2868 23.0592 83.8938 21.3276 81.7685 21.3276C79.6805 21.3276 78.276 23.0956 78.276 25.693C78.276 28.3142 79.6805 30.0696 81.7685 30.0696C83.8939 30.0696 85.2868 28.3507 85.2868 25.693H85.2868Z" fill="white"/>
<path id="Vector_4" d="M97.7809 27.2251C97.9834 28.9945 99.7425 30.1563 102.146 30.1563C104.45 30.1563 106.107 28.9945 106.107 27.399C106.107 26.0141 105.108 25.1848 102.741 24.6165L100.374 24.0594C97.0212 23.268 95.4645 21.7357 95.4645 19.2492C95.4645 16.1705 98.2102 14.0559 102.109 14.0559C105.968 14.0559 108.613 16.1705 108.702 19.2492H105.943C105.778 17.4685 104.272 16.3937 102.07 16.3937C99.8688 16.3937 98.3624 17.4812 98.3624 19.064C98.3624 20.3255 99.3246 21.0677 101.678 21.636L103.69 22.1187C107.437 22.9845 108.993 24.4551 108.993 27.065C108.993 30.4032 106.272 32.494 101.944 32.494C97.8943 32.494 95.16 30.4523 94.9834 27.225L97.7809 27.2251Z" fill="white"/>
<path id="Vector_5" d="M114.89 16.1086V19.1873H117.422V21.3019H114.89V28.4737C114.89 29.5879 115.397 30.107 116.51 30.107C116.811 30.1019 117.111 30.0813 117.409 30.0453V32.1473C116.909 32.2386 116.4 32.28 115.891 32.2707C113.196 32.2707 112.145 31.2815 112.145 28.7585V21.3019H110.209V19.1873H112.145V16.1086H114.89Z" fill="white"/>
<path id="Vector_6" d="M118.889 25.6927C118.889 21.5995 121.356 19.0275 125.203 19.0275C129.063 19.0275 131.519 21.5995 131.519 25.6927C131.519 29.7971 129.076 32.3579 125.203 32.3579C121.331 32.3579 118.889 29.7971 118.889 25.6927ZM128.734 25.6927C128.734 22.8849 127.417 21.2277 125.203 21.2277C122.989 21.2277 121.673 22.8975 121.673 25.6927C121.673 28.5117 122.989 30.1563 125.203 30.1563C127.417 30.1563 128.734 28.5117 128.734 25.6927H128.734Z" fill="white"/>
<path id="Vector_7" d="M133.772 19.1876H136.379V21.4018H136.442C136.618 20.7103 137.033 20.0991 137.616 19.6711C138.199 19.2431 138.916 19.0243 139.645 19.0515C139.959 19.0504 140.274 19.0838 140.581 19.1511V21.6488C140.183 21.5301 139.768 21.4756 139.353 21.4874C138.956 21.4717 138.56 21.5401 138.193 21.6879C137.825 21.8358 137.495 22.0595 137.225 22.3439C136.954 22.6282 136.75 22.9664 136.625 23.3352C136.501 23.704 136.46 24.0947 136.505 24.4805V32.1967H133.772L133.772 19.1876Z" fill="white"/>
<path id="Vector_8" d="M153.181 28.3756C152.813 30.7372 150.459 32.3579 147.448 32.3579C143.575 32.3579 141.171 29.8223 141.171 25.7544C141.171 21.6739 143.588 19.0275 147.333 19.0275C151.016 19.0275 153.333 21.4999 153.333 25.4443V26.3592H143.93V26.5206C143.886 26.9994 143.947 27.4817 144.11 27.9355C144.272 28.3893 144.531 28.8043 144.869 29.1528C145.208 29.5013 145.619 29.7754 146.074 29.9569C146.53 30.1384 147.019 30.2231 147.511 30.2054C148.157 30.2645 148.805 30.1184 149.359 29.7887C149.913 29.459 150.343 28.9634 150.586 28.3756L153.181 28.3756ZM143.942 24.493H150.599C150.623 24.0625 150.556 23.6317 150.402 23.2276C150.248 22.8235 150.011 22.4549 149.704 22.1449C149.397 21.8349 149.029 21.5901 148.62 21.426C148.212 21.2619 147.774 21.182 147.333 21.1912C146.888 21.1886 146.447 21.2722 146.035 21.437C145.623 21.6019 145.249 21.8448 144.934 22.1518C144.618 22.4588 144.369 22.8237 144.198 23.2255C144.028 23.6273 143.941 24.0581 143.942 24.493V24.493Z" fill="white"/>
</g>
<g id="Download">
<path id="Vector_9" d="M47.9535 0.922571C48.5265 0.882396 49.1014 0.966972 49.6368 1.17019C50.1722 1.37342 50.6548 1.69022 51.0498 2.09776C51.4448 2.5053 51.7422 2.9934 51.9207 3.52688C52.0993 4.06035 52.1544 4.62589 52.0822 5.1827C52.0822 7.92177 50.5671 9.49623 47.9535 9.49623H44.7842V0.922571H47.9535ZM46.147 8.28373H47.8013C48.2107 8.30764 48.6204 8.24205 49.0006 8.09173C49.3808 7.94142 49.7219 7.71015 49.9991 7.41478C50.2762 7.1194 50.4825 6.76735 50.6029 6.38425C50.7233 6.00115 50.7547 5.59665 50.6949 5.20018C50.7504 4.80527 50.7158 4.40327 50.5935 4.02298C50.4713 3.64269 50.2645 3.29352 49.988 3.0005C49.7114 2.70747 49.3719 2.47785 48.9939 2.32807C48.6159 2.1783 48.2086 2.11208 47.8013 2.13417H46.147V8.28373Z" fill="white"/>
<path id="Vector_10" d="M53.6222 6.25786C53.5806 5.83266 53.6303 5.40365 53.7683 4.99835C53.9063 4.59305 54.1295 4.22041 54.4235 3.90432C54.7175 3.58823 55.0759 3.33567 55.4757 3.16285C55.8754 2.99003 56.3077 2.90076 56.7449 2.90076C57.182 2.90076 57.6143 2.99003 58.0141 3.16285C58.4138 3.33567 58.7722 3.58823 59.0662 3.90432C59.3603 4.22041 59.5834 4.59305 59.7214 4.99835C59.8594 5.40365 59.9092 5.83266 59.8676 6.25786C59.91 6.6835 59.8608 7.1131 59.7232 7.51906C59.5855 7.92501 59.3625 8.29834 59.0684 8.61505C58.7743 8.93176 58.4157 9.18485 58.0155 9.35804C57.6154 9.53124 57.1825 9.62071 56.7449 9.62071C56.3072 9.62071 55.8744 9.53124 55.4742 9.35804C55.0741 9.18485 54.7154 8.93176 54.4213 8.61505C54.1272 8.29834 53.9042 7.92501 53.7666 7.51906C53.629 7.1131 53.5798 6.6835 53.6222 6.25786ZM58.5234 6.25786C58.5234 4.85536 57.8786 4.03519 56.747 4.03519C55.6111 4.03519 54.9721 4.85536 54.9721 6.25788C54.9721 7.67161 55.6112 8.48547 56.747 8.48547C57.8786 8.48545 58.5234 7.66598 58.5234 6.25786H58.5234Z" fill="white"/>
<path id="Vector_11" d="M68.1688 9.49595H66.8132L65.4447 4.73065H65.3413L63.9785 9.49595H62.6358L60.8105 3.02576H62.136L63.3222 7.96289H63.4199L64.7812 3.02576H66.0349L67.3963 7.96289H67.4997L68.6801 3.02576H69.9869L68.1688 9.49595Z" fill="white"/>
<path id="Vector_12" d="M71.5215 3.02604H72.7795V4.05388H72.8771C73.0428 3.68472 73.3222 3.37526 73.6764 3.16862C74.0306 2.96199 74.4419 2.86849 74.8531 2.90114C75.1753 2.87747 75.4988 2.92494 75.7997 3.04003C76.1005 3.15512 76.371 3.33488 76.5912 3.56599C76.8113 3.79711 76.9753 4.07365 77.0712 4.37514C77.1671 4.67663 77.1923 4.99533 77.145 5.30764V9.49616H75.8382V5.62829C75.8382 4.58852 75.3758 4.07143 74.4094 4.07143C74.1906 4.06148 73.9723 4.09785 73.7692 4.17808C73.5662 4.2583 73.3834 4.38046 73.2332 4.5362C73.083 4.69194 72.9691 4.87756 72.8992 5.08035C72.8293 5.28314 72.8051 5.4983 72.8283 5.71107V9.49623H71.5215L71.5215 3.02604Z" fill="white"/>
<path id="Vector_13" d="M79.2275 0.5H80.5343V9.49596H79.2275V0.5Z" fill="white"/>
<path id="Vector_14" d="M82.3516 6.25798C82.3101 5.83275 82.3599 5.40372 82.4979 4.99841C82.6359 4.59309 82.8591 4.22043 83.1532 3.90434C83.4472 3.58824 83.8056 3.33568 84.2054 3.16286C84.6052 2.99003 85.0375 2.90076 85.4747 2.90076C85.9119 2.90076 86.3442 2.99003 86.744 3.16286C87.1438 3.33568 87.5022 3.58824 87.7962 3.90434C88.0903 4.22043 88.3135 4.59309 88.4515 4.99841C88.5895 5.40372 88.6393 5.83275 88.5977 6.25798C88.6401 6.68364 88.5909 7.11324 88.4532 7.5192C88.3155 7.92515 88.0925 8.29847 87.7983 8.61517C87.5042 8.93187 87.1455 9.18495 86.7454 9.35813C86.3452 9.53132 85.9124 9.62079 85.4747 9.62079C85.037 9.62079 84.6042 9.53132 84.204 9.35813C83.8038 9.18495 83.4452 8.93187 83.151 8.61517C82.8569 8.29847 82.6339 7.92515 82.4962 7.5192C82.3585 7.11324 82.3093 6.68364 82.3516 6.25798ZM87.2529 6.25798C87.2529 4.85548 86.6081 4.03531 85.4765 4.03531C84.3406 4.03531 83.7016 4.85548 83.7016 6.258C83.7016 7.67173 84.3406 8.48559 85.4765 8.48559C86.6081 8.48557 87.2529 7.6661 87.2529 6.25798H87.2529Z" fill="white"/>
<path id="Vector_15" d="M89.9727 7.66604C89.9727 6.50138 90.8601 5.82995 92.4355 5.73452L94.2291 5.6335V5.07502C94.2291 4.39166 93.7667 4.00578 92.8735 4.00578C92.144 4.00578 91.6385 4.26748 91.4934 4.72493H90.2283C90.3618 3.61358 91.4317 2.90076 92.9338 2.90076C94.5939 2.90076 95.5302 3.70829 95.5302 5.07502V9.49583H94.2722V8.58655H94.1688C93.9589 8.91271 93.6642 9.17861 93.3148 9.35709C92.9654 9.53556 92.5737 9.62023 92.1799 9.60243C91.9019 9.63068 91.6209 9.60171 91.3551 9.51736C91.0893 9.43302 90.8445 9.29518 90.6366 9.11274C90.4286 8.9303 90.2621 8.70731 90.1478 8.45813C90.0334 8.20895 89.9738 7.93912 89.9727 7.66604ZM94.2291 7.11317V6.57224L92.6121 6.67327C91.7002 6.7329 91.2866 7.036 91.2866 7.6064C91.2866 8.18872 91.8036 8.5276 92.5145 8.5276C92.7228 8.5482 92.9332 8.52765 93.1332 8.46717C93.3332 8.40669 93.5187 8.30752 93.6787 8.17555C93.8386 8.04359 93.9698 7.88153 94.0644 7.69902C94.1589 7.51651 94.2149 7.31727 94.2291 7.11317Z" fill="white"/>
<path id="Vector_16" d="M97.248 6.25808C97.248 4.21361 98.3237 2.91845 99.9966 2.91845C100.41 2.89982 100.821 2.99667 101.181 3.19768C101.54 3.39869 101.834 3.69556 102.027 4.05359H102.125V0.5H103.432V9.49596H102.179V8.47372H102.076C101.868 8.82933 101.564 9.12251 101.197 9.32149C100.831 9.52047 100.416 9.61768 99.9967 9.60259C98.3122 9.60266 97.248 8.30747 97.248 6.25808ZM98.598 6.25808C98.598 7.63042 99.26 8.45622 100.367 8.45622C101.469 8.45622 102.149 7.61851 102.149 6.2637C102.149 4.91522 101.461 4.06557 100.367 4.06557C99.2671 4.06557 98.5979 4.89697 98.5979 6.25808H98.598Z" fill="white"/>
<path id="Vector_17" d="M108.838 6.25786C108.796 5.83266 108.846 5.40365 108.984 4.99835C109.122 4.59305 109.345 4.22041 109.639 3.90432C109.933 3.58823 110.292 3.33567 110.691 3.16285C111.091 2.99003 111.524 2.90076 111.961 2.90076C112.398 2.90076 112.83 2.99003 113.23 3.16285C113.63 3.33567 113.988 3.58823 114.282 3.90432C114.576 4.22041 114.799 4.59305 114.937 4.99835C115.075 5.40365 115.125 5.83266 115.083 6.25786C115.126 6.6835 115.077 7.1131 114.939 7.51906C114.801 7.92501 114.578 8.29834 114.284 8.61505C113.99 8.93176 113.631 9.18485 113.231 9.35804C112.831 9.53124 112.398 9.62071 111.961 9.62071C111.523 9.62071 111.09 9.53124 110.69 9.35804C110.29 9.18485 109.931 8.93176 109.637 8.61505C109.343 8.29834 109.12 7.92501 108.982 7.51906C108.845 7.1131 108.796 6.6835 108.838 6.25786ZM113.739 6.25786C113.739 4.85536 113.094 4.03519 111.963 4.03519C110.827 4.03519 110.188 4.85536 110.188 6.25788C110.188 7.67161 110.827 8.48547 111.963 8.48547C113.094 8.48545 113.739 7.66598 113.739 6.25786Z" fill="white"/>
<path id="Vector_18" d="M116.837 3.02604H118.095V4.05388H118.193C118.358 3.68472 118.638 3.37526 118.992 3.16862C119.346 2.96199 119.757 2.86849 120.169 2.90114C120.491 2.87747 120.814 2.92494 121.115 3.04003C121.416 3.15512 121.686 3.33488 121.907 3.56599C122.127 3.79711 122.291 4.07365 122.387 4.37514C122.483 4.67663 122.508 4.99533 122.46 5.30764V9.49616H121.154V5.62829C121.154 4.58852 120.691 4.07143 119.725 4.07143C119.506 4.06148 119.288 4.09785 119.085 4.17808C118.882 4.2583 118.699 4.38046 118.549 4.5362C118.398 4.69194 118.285 4.87756 118.215 5.08035C118.145 5.28314 118.121 5.4983 118.144 5.71107V9.49623H116.837V3.02604Z" fill="white"/>
<path id="Vector_19" d="M129.845 1.41492V3.05526H131.279V4.13083H129.845V7.45783C129.845 8.13558 130.131 8.43236 130.781 8.43236C130.948 8.43184 131.114 8.422 131.279 8.40289V9.46651C131.045 9.50754 130.807 9.52936 130.569 9.53176C129.115 9.53176 128.537 9.03222 128.537 7.78477V4.13077H127.485V3.05521H128.537V1.41492H129.845Z" fill="white"/>
<path id="Vector_20" d="M133.064 0.5H134.36V4.06556H134.463C134.637 3.69294 134.924 3.38173 135.285 3.17432C135.647 2.96691 136.064 2.87339 136.482 2.90651C136.803 2.88947 137.123 2.94175 137.421 3.05964C137.718 3.17752 137.985 3.3581 138.203 3.58849C138.421 3.81888 138.584 4.09339 138.681 4.39246C138.777 4.69153 138.805 5.00777 138.763 5.31862V9.49598H137.455V5.63363C137.455 4.60017 136.962 4.07677 136.039 4.07677C135.814 4.05877 135.588 4.08894 135.377 4.16517C135.165 4.2414 134.973 4.36185 134.815 4.5181C134.656 4.67434 134.534 4.8626 134.457 5.06971C134.381 5.27682 134.351 5.49777 134.371 5.71711V9.49595H133.065L133.064 0.5Z" fill="white"/>
<path id="Vector_21" d="M146.382 7.74894C146.204 8.34028 145.82 8.85179 145.295 9.19398C144.771 9.53617 144.14 9.68726 143.513 9.62082C143.077 9.63207 142.643 9.55042 142.242 9.38155C141.842 9.21267 141.483 8.96062 141.192 8.64287C140.901 8.32512 140.684 7.94929 140.557 7.54147C140.429 7.13365 140.394 6.70361 140.454 6.28119C140.396 5.85748 140.432 5.42651 140.559 5.01747C140.686 4.60843 140.902 4.23086 141.191 3.91033C141.481 3.5898 141.837 3.33379 142.237 3.15963C142.636 2.98546 143.07 2.89722 143.507 2.90087C145.349 2.90087 146.461 4.13084 146.461 6.16259V6.60816H141.785V6.67971C141.765 6.91715 141.795 7.15615 141.875 7.38138C141.954 7.60661 142.081 7.81311 142.247 7.98763C142.413 8.16214 142.615 8.30083 142.839 8.3948C143.063 8.48877 143.305 8.53594 143.549 8.53329C143.861 8.56996 144.178 8.51496 144.458 8.37529C144.739 8.23561 144.971 8.01758 145.124 7.7489L146.382 7.74894ZM141.785 5.66378H145.13C145.146 5.44663 145.116 5.22851 145.041 5.02344C144.966 4.81837 144.848 4.63088 144.695 4.47303C144.541 4.31518 144.356 4.19045 144.15 4.10686C143.944 4.02327 143.723 3.98266 143.5 3.98765C143.274 3.98488 143.05 4.02634 142.84 4.1096C142.631 4.19286 142.441 4.31623 142.281 4.47244C142.121 4.62865 141.995 4.81454 141.91 5.01914C141.825 5.22375 141.782 5.44293 141.785 5.66378H141.785Z" fill="white"/>
</g>
</g>
</g>
</svg>
