<svg width="159" height="37" viewBox="0 0 159 37" fill="none" xmlns="http://www.w3.org/2000/svg">
<g id="Group 17">
<g id="Google Play logo" filter="url(#filter0_ii_876_4235)">
<path id="Vector" d="M0.977549 1.05591C0.571835 1.487 0.332031 2.15603 0.332031 3.02241V33.977C0.332031 34.8447 0.571835 35.5124 0.977549 35.9435L1.08072 36.0442L18.3535 18.704V18.4997V18.2953L1.08072 0.953736L0.977549 1.05591Z" fill="url(#paint0_linear_876_4235)"/>
<path id="Vector_2" d="M24.1102 24.4857L18.3535 18.7038V18.4994V18.2951L24.1116 12.5145L24.2412 12.5887L31.0631 16.4797C33.0108 17.591 33.0108 19.4092 31.0631 20.5219L24.2412 24.4129L24.1102 24.4857Z" fill="url(#paint1_linear_876_4235)"/>
<g id="Vector_3" filter="url(#filter1_i_876_4235)">
<path d="M24.2412 24.4111L18.3521 18.499L0.97754 35.9428C1.61887 36.6258 2.67986 36.7098 3.87469 36.0296L24.2412 24.4111Z" fill="url(#paint2_linear_876_4235)"/>
</g>
<path id="Vector_4" d="M24.2412 12.5874L3.87469 0.970386C2.67986 0.288759 1.61887 0.374138 0.97754 1.05716L18.3535 18.5009L24.2412 12.5874Z" fill="url(#paint3_linear_876_4235)"/>
</g>
<g id="text">
<g id="Get it on">
<path id="path42" d="M54.8777 4.96967C54.8777 6.07834 54.5514 6.96077 53.8976 7.61962C53.1543 8.40283 52.1873 8.79443 50.9981 8.79443C49.8575 8.79443 48.8892 8.39754 48.0933 7.60242C47.2948 6.80863 46.8975 5.823 46.8975 4.64818C46.8975 3.47204 47.2948 2.48774 48.0933 1.69262C48.8892 0.898829 49.8575 0.500609 50.9981 0.500609C51.5625 0.500609 52.1045 0.61174 52.6175 0.834003C53.1319 1.05627 53.5437 1.35129 53.8529 1.72041L53.1582 2.41894C52.636 1.79185 51.9163 1.47698 50.9981 1.47698C50.1666 1.47698 49.4483 1.77068 48.8419 2.35809C48.2354 2.94682 47.9328 3.70886 47.9328 4.64818C47.9328 5.58618 48.2354 6.34955 48.8419 6.93696C49.4483 7.52569 50.1666 7.81807 50.9981 7.81807C51.8795 7.81807 52.6136 7.52304 53.203 6.93166C53.5845 6.54667 53.8042 6.01219 53.8634 5.32423H50.9981V4.37036H54.8224C54.8593 4.57806 54.8777 4.77784 54.8777 4.96967Z" fill="white"/>
<path id="path46" d="M54.8777 4.96967C54.8777 6.07834 54.5514 6.96077 53.8976 7.61962C53.1543 8.40283 52.1873 8.79443 50.9981 8.79443C49.8575 8.79443 48.8892 8.39754 48.0933 7.60242C47.2948 6.80863 46.8975 5.823 46.8975 4.64818C46.8975 3.47204 47.2948 2.48774 48.0933 1.69262C48.8892 0.898829 49.8575 0.500609 50.9981 0.500609C51.5625 0.500609 52.1045 0.61174 52.6175 0.834003C53.1319 1.05627 53.5437 1.35129 53.8529 1.72041L53.1582 2.41894C52.636 1.79185 51.9163 1.47698 50.9981 1.47698C50.1666 1.47698 49.4483 1.77068 48.8419 2.35809C48.2354 2.94682 47.9328 3.70886 47.9328 4.64818C47.9328 5.58618 48.2354 6.34955 48.8419 6.93696C49.4483 7.52569 50.1666 7.81807 50.9981 7.81807C51.8795 7.81807 52.6136 7.52304 53.203 6.93166C53.5845 6.54667 53.8042 6.01219 53.8634 5.32423H50.9981V4.37036H54.8224C54.8593 4.57806 54.8777 4.77784 54.8777 4.96967Z" fill="white"/>
<path id="path50" d="M60.9414 1.65429H57.3473V4.17062H60.5889V5.12449H57.3473V7.64082H60.9414V8.61719H56.333V0.679248H60.9414V1.65429Z" fill="white"/>
<path id="path54" d="M60.9414 1.65429H57.3473V4.17062H60.5889V5.12449H57.3473V7.64082H60.9414V8.61719H56.333V0.679248H60.9414V1.65429Z" fill="white"/>
<path id="path58" d="M65.2182 8.61682H64.2039V1.65393H61.999V0.678882H67.4231V1.65393H65.2182V8.61682Z" fill="white"/>
<path id="path62" d="M65.2182 8.61682H64.2039V1.65393H61.999V0.678882H67.4231V1.65393H65.2182V8.61682Z" fill="white"/>
<path id="path64" d="M71.3477 0.678882H72.362V8.61682H71.3477V0.678882Z" fill="white"/>
<path id="path68" d="M76.8608 8.61682H75.8465V1.65393H73.6416V0.678882H79.0657V1.65393H76.8608V8.61682Z" fill="white"/>
<path id="path72" d="M76.8608 8.61682H75.8465V1.65393H73.6416V0.678882H79.0657V1.65393H76.8608V8.61682Z" fill="white"/>
<path id="path76" d="M84.2943 6.92637C84.8784 7.52172 85.5928 7.81807 86.4387 7.81807C87.2846 7.81807 87.999 7.52172 88.5831 6.92637C89.1672 6.33103 89.4606 5.57163 89.4606 4.64818C89.4606 3.72474 89.1672 2.96402 88.5831 2.36999C87.999 1.77465 87.2846 1.47698 86.4387 1.47698C85.5928 1.47698 84.8784 1.77465 84.2943 2.36999C83.7115 2.96402 83.4182 3.72474 83.4182 4.64818C83.4182 5.57163 83.7115 6.33103 84.2943 6.92637ZM89.3329 7.59051C88.5568 8.39357 87.5925 8.79443 86.4387 8.79443C85.2849 8.79443 84.3206 8.39357 83.5458 7.59051C82.7696 6.78878 82.3828 5.80845 82.3828 4.64818C82.3828 3.48792 82.7696 2.50626 83.5458 1.70453C84.3206 0.902798 85.2849 0.500609 86.4387 0.500609C87.5859 0.500609 88.5476 0.904121 89.3277 1.70982C90.1065 2.51552 90.4959 3.49454 90.4959 4.64818C90.4959 5.80845 90.1078 6.78878 89.3329 7.59051Z" fill="white"/>
<path id="path80" d="M84.2943 6.92637C84.8784 7.52172 85.5928 7.81807 86.4387 7.81807C87.2846 7.81807 87.999 7.52172 88.5831 6.92637C89.1672 6.33103 89.4606 5.57163 89.4606 4.64818C89.4606 3.72474 89.1672 2.96402 88.5831 2.36999C87.999 1.77465 87.2846 1.47698 86.4387 1.47698C85.5928 1.47698 84.8784 1.77465 84.2943 2.36999C83.7115 2.96402 83.4182 3.72474 83.4182 4.64818C83.4182 5.57163 83.7115 6.33103 84.2943 6.92637ZM89.3329 7.59051C88.5568 8.39357 87.5925 8.79443 86.4387 8.79443C85.2849 8.79443 84.3206 8.39357 83.5458 7.59051C82.7696 6.78878 82.3828 5.80845 82.3828 4.64818C82.3828 3.48792 82.7696 2.50626 83.5458 1.70453C84.3206 0.902798 85.2849 0.500609 86.4387 0.500609C87.5859 0.500609 88.5476 0.904121 89.3277 1.70982C90.1065 2.51552 90.4959 3.49454 90.4959 4.64818C90.4959 5.80845 90.1078 6.78878 89.3329 7.59051Z" fill="white"/>
<path id="path84" d="M91.9199 8.61682V0.678882H93.1539L96.9901 6.85328H97.0348L96.9901 5.3239V0.678882H98.0057V8.61682H96.9467L92.9329 2.14211H92.8895L92.9329 3.67281V8.61682H91.9199Z" fill="white"/>
<path id="path88" d="M91.9199 8.61682V0.678882H93.1539L96.9901 6.85328H97.0348L96.9901 5.3239V0.678882H98.0057V8.61682H96.9467L92.9329 2.14211H92.8895L92.9329 3.67281V8.61682H91.9199Z" fill="white"/>
</g>
<path id="Google Play" d="M133.177 31.1076H135.632V14.5689H133.177V31.1076ZM155.288 20.5263L152.474 27.6969H152.39L149.469 20.5263H146.825L151.204 30.548L148.709 36.1231H151.267L158.018 20.5263H155.288ZM141.367 29.229C140.561 29.229 139.441 28.8255 139.441 27.824C139.441 26.5486 140.836 26.0591 142.043 26.0591C143.121 26.0591 143.631 26.2933 144.286 26.6121C144.095 28.1441 142.783 29.229 141.367 29.229ZM141.663 20.1652C139.885 20.1652 138.043 20.9523 137.283 22.6974L139.462 23.6116C139.927 22.6974 140.794 22.3984 141.705 22.3984C142.974 22.3984 144.265 23.1644 144.286 24.5271V24.6964C143.841 24.4411 142.89 24.0587 141.726 24.0587C139.377 24.0587 136.986 25.3566 136.986 27.7816C136.986 29.995 138.912 31.4212 141.069 31.4212C142.72 31.4212 143.631 30.6763 144.202 29.8031H144.286V31.0798H146.655V24.7387C146.655 21.803 144.477 20.1652 141.663 20.1652ZM126.491 22.5399H123V16.8709H126.491C128.327 16.8709 129.369 18.399 129.369 19.7048C129.369 20.9867 128.327 22.5399 126.491 22.5399ZM126.428 14.5689H120.546V31.1076H123V24.8419H126.428C129.149 24.8419 131.823 22.8601 131.823 19.7048C131.823 16.5494 129.149 14.5689 126.428 14.5689ZM94.3535 29.2316C92.6577 29.2316 91.2382 27.8041 91.2382 25.8434C91.2382 23.8616 92.6577 22.4116 94.3535 22.4116C96.0282 22.4116 97.3411 23.8616 97.3411 25.8434C97.3411 27.8041 96.0282 29.2316 94.3535 29.2316ZM97.1727 21.4524H97.0872C96.536 20.7923 95.477 20.1956 94.1417 20.1956C91.3435 20.1956 88.7794 22.6669 88.7794 25.8434C88.7794 28.9974 91.3435 31.4489 94.1417 31.4489C95.477 31.4489 96.536 30.8523 97.0872 30.1696H97.1727V30.9806C97.1727 33.1331 96.0282 34.2841 94.1838 34.2841C92.6787 34.2841 91.746 33.1966 91.3645 32.2798L89.2241 33.1754C89.8384 34.6678 91.4711 36.5001 94.1838 36.5001C97.0662 36.5001 99.5039 34.7948 99.5039 30.6393V20.5356H97.1727V21.4524ZM101.2 31.1076H103.658V14.5676H101.2V31.1076ZM107.282 25.6516C107.218 23.4779 108.956 22.3693 110.206 22.3693C111.182 22.3693 112.008 22.8588 112.283 23.5626L107.282 25.6516ZM114.912 23.7756C114.446 22.5188 113.025 20.1956 110.122 20.1956C107.239 20.1956 104.845 22.4751 104.845 25.8223C104.845 28.9763 107.218 31.4489 110.397 31.4489C112.962 31.4489 114.446 29.8719 115.06 28.9551L113.153 27.6758C112.517 28.6138 111.648 29.2316 110.397 29.2316C109.147 29.2316 108.256 28.6561 107.684 27.5276L115.166 24.4146L114.912 23.7756ZM55.3062 21.9221V24.3088H60.9855C60.8158 25.6516 60.3711 26.6319 59.6936 27.3133C58.8661 28.1454 57.5729 29.0623 55.3062 29.0623C51.8081 29.0623 49.0743 26.2271 49.0743 22.7106C49.0743 19.1928 51.8081 16.3589 55.3062 16.3589C57.1927 16.3589 58.5701 17.1051 59.587 18.0643L61.2617 16.3801C59.8409 15.0161 57.9557 13.9709 55.3062 13.9709C50.5162 13.9709 46.4893 17.8936 46.4893 22.7106C46.4893 27.5276 50.5162 31.4489 55.3062 31.4489C57.8913 31.4489 59.8409 30.5956 61.367 28.9974C62.9365 27.4204 63.4232 25.2044 63.4232 23.4131C63.4232 22.8588 63.3811 22.3481 63.2956 21.9221H55.3062ZM69.8813 29.2316C68.1856 29.2316 66.7226 27.8253 66.7226 25.8223C66.7226 23.7968 68.1856 22.4116 69.8813 22.4116C71.5758 22.4116 73.0387 23.7968 73.0387 25.8223C73.0387 27.8253 71.5758 29.2316 69.8813 29.2316ZM69.8813 20.1956C66.7858 20.1956 64.2639 22.5611 64.2639 25.8223C64.2639 29.0623 66.7858 31.4489 69.8813 31.4489C72.9755 31.4489 75.4975 29.0623 75.4975 25.8223C75.4975 22.5611 72.9755 20.1956 69.8813 20.1956ZM82.1332 29.2316C80.4374 29.2316 78.9745 27.8253 78.9745 25.8223C78.9745 23.7968 80.4374 22.4116 82.1332 22.4116C83.8289 22.4116 85.2905 23.7968 85.2905 25.8223C85.2905 27.8253 83.8289 29.2316 82.1332 29.2316ZM82.1332 20.1956C79.039 20.1956 76.517 22.5611 76.517 25.8223C76.517 29.0623 79.039 31.4489 82.1332 31.4489C85.2274 31.4489 87.7493 29.0623 87.7493 25.8223C87.7493 22.5611 85.2274 20.1956 82.1332 20.1956Z" fill="white"/>
</g>
</g>
<defs>
<filter id="filter0_ii_876_4235" x="0.332031" y="0.5" width="32.1914" height="35.9994" filterUnits="userSpaceOnUse" color-interpolation-filters="sRGB">
<feFlood flood-opacity="0" result="BackgroundImageFix"/>
<feBlend mode="normal" in="SourceGraphic" in2="BackgroundImageFix" result="shape"/>
<feColorMatrix in="SourceAlpha" type="matrix" values="0 0 0 0 0 0 0 0 0 0 0 0 0 0 0 0 0 0 127 0" result="hardAlpha"/>
<feOffset dy="-0.795"/>
<feComposite in2="hardAlpha" operator="arithmetic" k2="-1" k3="1"/>
<feColorMatrix type="matrix" values="0 0 0 0 0 0 0 0 0 0 0 0 0 0 0 0 0 0 0.12 0"/>
<feBlend mode="normal" in2="shape" result="effect1_innerShadow_876_4235"/>
<feColorMatrix in="SourceAlpha" type="matrix" values="0 0 0 0 0 0 0 0 0 0 0 0 0 0 0 0 0 0 127 0" result="hardAlpha"/>
<feOffset dy="0.795"/>
<feComposite in2="hardAlpha" operator="arithmetic" k2="-1" k3="1"/>
<feColorMatrix type="matrix" values="0 0 0 0 1 0 0 0 0 1 0 0 0 0 1 0 0 0 0.25 0"/>
<feBlend mode="normal" in2="effect1_innerShadow_876_4235" result="effect2_innerShadow_876_4235"/>
</filter>
<filter id="filter1_i_876_4235" x="0.977539" y="18.499" width="23.2637" height="18.0004" filterUnits="userSpaceOnUse" color-interpolation-filters="sRGB">
<feFlood flood-opacity="0" result="BackgroundImageFix"/>
<feBlend mode="normal" in="SourceGraphic" in2="BackgroundImageFix" result="shape"/>
<feColorMatrix in="SourceAlpha" type="matrix" values="0 0 0 0 0 0 0 0 0 0 0 0 0 0 0 0 0 0 127 0" result="hardAlpha"/>
<feOffset dy="-0.795"/>
<feComposite in2="hardAlpha" operator="arithmetic" k2="-1" k3="1"/>
<feColorMatrix type="matrix" values="0 0 0 0 0 0 0 0 0 0 0 0 0 0 0 0 0 0 0.08 0"/>
<feBlend mode="normal" in2="shape" result="effect1_innerShadow_876_4235"/>
</filter>
<linearGradient id="paint0_linear_876_4235" x1="16.8224" y1="2.69489" x2="-6.66628" y2="26.0922" gradientUnits="userSpaceOnUse">
<stop stop-color="#00A0FF"/>
<stop offset="0.0066" stop-color="#00A1FF"/>
<stop offset="0.2601" stop-color="#00BEFF"/>
<stop offset="0.5122" stop-color="#00D2FF"/>
<stop offset="0.7604" stop-color="#00DFFF"/>
<stop offset="1" stop-color="#00E3FF"/>
</linearGradient>
<linearGradient id="paint1_linear_876_4235" x1="33.5984" y1="18.4994" x2="-0.135573" y2="18.4994" gradientUnits="userSpaceOnUse">
<stop stop-color="#FFE000"/>
<stop offset="0.4087" stop-color="#FFBD00"/>
<stop offset="0.7754" stop-color="#FFA500"/>
<stop offset="1" stop-color="#FF9C00"/>
</linearGradient>
<linearGradient id="paint2_linear_876_4235" x1="21.0431" y1="21.7097" x2="-10.8105" y2="53.4394" gradientUnits="userSpaceOnUse">
<stop stop-color="#FF3A44"/>
<stop offset="1" stop-color="#C31162"/>
</linearGradient>
<linearGradient id="paint3_linear_876_4235" x1="-3.39831" y1="-9.2473" x2="10.8252" y2="4.9209" gradientUnits="userSpaceOnUse">
<stop stop-color="#32A071"/>
<stop offset="0.0685" stop-color="#2DA771"/>
<stop offset="0.4762" stop-color="#15CF74"/>
<stop offset="0.8009" stop-color="#06E775"/>
<stop offset="1" stop-color="#00F076"/>
</linearGradient>
</defs>
</svg>
