<svg width="16" height="20" viewBox="0 0 16 20" fill="none" xmlns="http://www.w3.org/2000/svg">
<g id="compare">
<path id="compare_2" d="M7.86323 3.57143C8.91923 3.57143 9.9658 3.61086 11.0021 3.68971C11.8231 3.75036 12.595 4.10397 13.1771 4.6861C13.7593 5.26822 14.1129 6.04013 14.1735 6.86114C14.3312 8.95075 14.3312 11.0493 14.1735 13.1389C14.1129 13.9599 13.7593 14.7318 13.1771 15.3139C12.595 15.896 11.8231 16.2496 11.0021 16.3103C10.8135 16.3249 10.6241 16.3377 10.4347 16.3497M7.86323 3.57143L10.4347 1M7.86323 3.57143L10.4347 6.14286M7.86323 16.4286C6.80723 16.4286 5.76066 16.3891 4.72437 16.3103C3.90335 16.2496 3.13145 15.896 2.54932 15.3139C1.9672 14.7318 1.61359 13.9599 1.55294 13.1389C1.39523 11.0493 1.39523 8.95074 1.55294 6.86114C1.61359 6.04013 1.9672 5.26822 2.54932 4.6861C3.13145 4.10397 3.90335 3.75036 4.72437 3.68971C4.91294 3.67514 5.10237 3.66228 5.2918 3.65028M7.86323 16.4286L5.2918 13.8571M7.86323 16.4286L5.2918 19" stroke="#2A2A2A" stroke-opacity="0.8" stroke-width="1.6" stroke-linecap="round" stroke-linejoin="round"/>
</g>
</svg>
